<svg xmlns="http://www.w3.org/2000/svg" width="1364.486" height="687.943" viewBox="0 0 1364.486 687.943">
    <defs>
        <style>
            .cls-1,.cls-12{fill:#e30611}.cls-2{fill:url(#linear-gradient)}.cls-3{opacity:.3}.cls-4,.cls-9{opacity:.1}.cls-5{fill:#fbbebe}.cls-6{opacity:.4}.cls-7{fill:#3f3d56}.cls-8{fill:#ff6584}.cls-10{opacity:.2}.cls-11{fill:#e2abab}.cls-12{opacity:.5}.cls-13{fill:#535461}.cls-14{fill:#9d9cb5}.cls-15{fill:none;stroke:#535461;stroke-miterlimit:10;stroke-width:2px}
        </style>
        <linearGradient id="linear-gradient" x1=".5" x2=".5" y1="1" gradientUnits="objectBoundingBox">
            <stop offset="0" stop-color="gray" stop-opacity=".251"/>
            <stop offset=".54" stop-color="gray" stop-opacity=".122"/>
            <stop offset="1" stop-color="gray" stop-opacity=".102"/>
        </linearGradient>
    </defs>
    <g id="undraw_powerful_26ry" transform="translate(.006 -276.172)">
        <ellipse id="Ellipse_401" cx="652.893" cy="90.162" class="cls-1" data-name="Ellipse 401" rx="652.893" ry="90.162" transform="translate(58.694 783.792)"/>
        <path id="Path_1776" d="M923.438 580.73s-6.61-2-15.4-4.53a30.732 30.732 0 0 0-12.4-3.489c-10.371-2.85-21.023-5.559-26.788-6.4-13.643-2-37.733-9.612-37.733-9.612-9.233.8-18.867-6.014-18.867-6.014s-9.959-18.032-15.746-22a4.33 4.33 0 0 0-.726-.444 13.709 13.709 0 0 1-2.276-1.658c-5.949-19.4-18.942-20.59-19.614-20.655-2.514-2.85-4.79-5.473-6.5-7.51 6.7-36.216 26.734-76.648 72.779-110.826 0 0 27.352-32.012 11.454-69.051s-20.351-37.657-47.681-30.754l-61.78 29.508s-17.425 4.14-51.257 6.047c-2.818-5.646-7.2-10.316-13.21-11.769-12.679-3.056-23.732 10.219-35.9 6.567-9.287-2.785-20.5-13.741-29.627-3.132-1.29 1.5-2.167 3.327-3.381 4.866a13.663 13.663 0 0 1-2.991 2.72c-20.741-1.365-43.769-3.641-69.03-7.185l-54.682-32.64s-33.7-15.691-34.97 25.737-4.454 60.88 10.165 72.183c10.6 8.182 45.211 64.131 58.171 112.235-1.907 2.731-3.088 4.454-3.088 4.454s-36.942 50.1-39.749 51.3c-.184.076-.26.347-.249.759-.542 1.17-2.167 3.414-7.38 4.855-7.228 2-39.337 11.617-43.758 11.617s-24.48 1.2-26.5 9.222a27.733 27.733 0 0 1 3.8.076l-.964 1.224c-5.483 7.044-14.716 20.167-15.28 29.151-.813 12.82 2.807 52.493 23.689 52.092s11.238-59.3 11.238-59.3l2.449-7.2.065-.173 1.691 11.844c.368-.206.726-.412 1.084-.585 1.9 5.765 8.778 11.411 28.24 11.8 0 0 30.1 2.807 52.59 47.681 20.405 40.746 88.135 78.512 137.69 78.23V806l-6.816 2-88.5 1.517a5.787 5.787 0 0 0-5.7 5.516l-.542 11.4 25.661 2.416-79.866 19.235s-14.088-1.2-11.649 18.834h19.679l.4-4.01L653.464 851.7l9.244 2.3c-1.29 6.751-2.59 12.256-2.926 13.7l-.1.368a3.138 3.138 0 0 1-.13.737c-.943-.325-1.474-.542-1.474-.542-2.167 2.471-3.414 28.251-3.609 30.863s10.035 5.754 10.035 5.754c4.638 1.7 22.638 0 22.638 0 5.949-.347 21.912-5.938 21.912-5.938l-1.409-28.251c-.694.228-1.387.433-2.081.629q.065-.6.13-1.235c.141-1.658.26-3.435.368-5.267l71.457 17.718h2v3.609h22.085s2-15.225-6.025-20.037-50.185-21.24-50.185-21.24l10.1-.954 40.258-3.825v1.084h6.014l-.13-1.68 11.173-1.084 13.242.4s-.4-16.829-10.436-18.032c-1.734-.217-7.434-.791-15.648-1.615l-2.612-31.719c6.4-10.837 22.887 22.031 22.887 22.031s.065.249.163.661c.791 3.37 4.486 18.422 6.99 20.145h.076a34.671 34.671 0 0 0 4.335 1.983 86.837 86.837 0 0 0 20.113 4.822c12.852 1.615 40.952-6.805 46.24-9.612a6.653 6.653 0 0 0 2.254-1.864c1.788-2.536-.314-5.278-.314-5.278l-5.646-.574c4.963-2.243 5.917-10.577-3.349-12.159-.358-.065-.726-.108-1.084-.152a14.733 14.733 0 0 1 1.669-2.308c-4.822.921-17.675-4.909-17.675-4.909a29.709 29.709 0 0 0-5.765-1.821l-.141-.249c-.2-.358-.379-.726-.553-1.084-2.774-5.819-3.825-13-4.779-18.422-2-11.628-25.488-56.5-25.488-56.5s-8.182-18.682-15.171-38.513c8.312-7.1 14.727-15.03 18.422-23.841l6.892-10.6a128.96 128.96 0 0 0 12.191-18.737l7.011-10.772c13.069-.954 34.558-2.449 45.6-2.807 3.164 17.154 7 37.029 8.734 42.426 3.251 10.024 19.679-1.6 26.095-27.243s-23.624-51.336-23.624-51.336zM675.94 792.142v-56.351a568.712 568.712 0 0 0 11.281-1.907c-2.427 14.38-5.418 27.536-5.418 27.536.259 7.033-3.685 22.68-5.863 30.722zm128.6-17.74l2.081.694a22.758 22.758 0 0 1 8.843 5.689 71.3 71.3 0 0 0-10.926-6.385zm-12.776-51.81s4.822 9.222-4.811 24.448c-7.228 11.422-2.937 18.119 7.466 23.288a82.66 82.66 0 0 0-10.468-2.85l.509.293c-8.474-1.853-4.335 5.711-4.335 5.711 8.42 8.171 12.321 28.815 14.088 45.189a61871.991 61871.991 0 0 0-84.927-8.268 74.045 74.045 0 0 0 .954-8.463c0-4.811 5.223-23.646 5.223-23.646s15.009-34.948 23.288-55.993a341.944 341.944 0 0 0 45.893-16.1c3.869 8.485 7.12 16.4 7.12 16.4z" class="cls-2" data-name="Path 1776" transform="translate(-216.432 -3.678)"/>
        <path id="Rectangle_975" d="M0 0h34.515v98.798H0z" class="cls-1" data-name="Rectangle 975" transform="translate(425.547 722.404)"/>
        <path id="Rectangle_976" d="M0 0h34.515v98.798H0z" class="cls-3" data-name="Rectangle 976" transform="translate(425.547 722.404)"/>
        <path id="Path_1777" d="M534.846 773.07l-.542 11.292 25.4 2.384-78.965 19.054s-13.882-1.192-11.5 18.65h19.441l.39-3.966 157.923-11.118L769.6 839.922h1.983v3.565h21.825s1.983-15.074-5.96-19.831-49.589-21.034-49.589-21.034l66.656-6.35 13.091.4s-.39-16.667-10.317-17.859-150.043-14.683-150.043-14.683H634.7l-6.751 2.026-87.424 1.444a5.743 5.743 0 0 0-5.678 5.472z" class="cls-1" data-name="Path 1777" transform="translate(-209.151 36.839)"/>
        <path id="Path_1778" d="M656.415 691.63v11.454c-12.43 1.983-20.232 2.828-20.232 2.828A79.932 79.932 0 0 1 621.9 707.2v-15.57z" class="cls-4" data-name="Path 1778" transform="translate(-196.353 30.773)"/>
        <path id="Path_1779" d="M904.245 609.2c-6.35 25.39-22.616 36.9-25.8 26.972-2.883-9.049-11.747-59.114-13.253-67.762a74.433 74.433 0 0 0-.228-1.279l-1.584-10.301 13.438 1.214 4.01.368s29.756 25.388 23.417 50.788z" class="cls-5" data-name="Path 1779" transform="translate(-176.265 19.495)"/>
        <path id="Path_1780" d="M424.36 567.023s-13.882 23.407 26.192 24.2c0 0 29.757 2.774 52.016 47.215s101.182 85.306 150.38 76.182c0 0 164.717-17.772 184.407-82.12l13.589-34.927s56.351-4.335 62.289-3.576 1.983-16.255 1.983-16.255l-14.684-10.707-34.916 5.949-39.673 36.5L702.1 667.8l-119.428-17.064s-94.431-60.685-95.222-63.481-38.09-28.175-38.09-28.175z" class="cls-1" data-name="Path 1780" transform="translate(-213.099 19.684)"/>
        <path id="Path_1781" d="M426.013 554.226v5.96l-3.153 9.146-2.427 7.12s9.515 58.334-11.108 58.724-24.187-38.893-23.4-51.572c.563-8.9 9.688-21.89 15.106-28.858 2.308-2.991 3.945-4.877 3.945-4.877z" class="cls-5" data-name="Path 1781" transform="translate(-215.995 18.913)"/>
        <path id="Path_1782" d="M534.846 773.07l-.542 11.292 25.4 2.384-78.965 19.054s-13.882-1.192-11.5 18.65h19.441l.39-3.966 157.923-11.118L769.6 839.922h1.983v3.565h21.825s1.983-15.074-5.96-19.831-49.589-21.034-49.589-21.034l66.656-6.35 13.091.4s-.39-16.667-10.317-17.859-150.043-14.683-150.043-14.683H634.7l-6.751 2.026-87.424 1.444a5.743 5.743 0 0 0-5.678 5.472z" class="cls-3" data-name="Path 1782" transform="translate(-209.151 36.839)"/>
        <path id="Path_1783" d="M424.36 567.023s-13.882 23.407 26.192 24.2c0 0 29.757 2.774 52.016 47.215s101.182 85.306 150.38 76.182c0 0 164.717-17.772 184.407-82.12l13.589-34.927s56.351-4.335 62.289-3.576 1.983-16.255 1.983-16.255l-14.684-10.707-34.916 5.949-39.673 36.5L702.1 667.8l-119.428-17.064s-94.431-60.685-95.222-63.481-38.09-28.175-38.09-28.175z" class="cls-6" data-name="Path 1783" transform="translate(-213.099 19.684)"/>
        <path id="Path_1784" d="M875.647 583.971L841.706 621.9c-81.08 93.845-233.8 59.038-287.171 51.582s-80.668-88.861-80.668-88.861a20.516 20.516 0 0 0 6.068-.249c8.984-1.539 25.824-8.973 35.631-42.014 13.828-46.6-45.882-147.92-60.339-159.1s-11.313-30.451-10.056-71.522 34.529-25.513 34.529-25.513l54.053 32.315c132.608 18.65 203 1.864 203 1.864l60.956-29.2c27.027-6.838 31.426-6.22 47.139 30.451s-11.313 68.368-11.313 68.368C742.41 457.757 754.352 550.4 768.8 584.545c9.753 23.028 54.812 14.76 83.215 6.9 13.77-3.757 23.632-7.474 23.632-7.474z" class="cls-1" data-name="Path 1784" transform="translate(-211.253 -3.387)"/>
        <path id="Path_1785" d="M875.647 583.971L841.706 621.9c-81.08 93.845-233.8 59.038-287.171 51.582s-80.668-88.861-80.668-88.861a20.516 20.516 0 0 0 6.068-.249c8.984-1.539 25.824-8.973 35.631-42.014 13.828-46.6-45.882-147.92-60.339-159.1s-11.313-30.451-10.056-71.522 34.529-25.513 34.529-25.513l54.053 32.315c132.608 18.65 203 1.864 203 1.864l60.956-29.2c27.027-6.838 31.426-6.22 47.139 30.451s-11.313 68.368-11.313 68.368C742.41 457.757 754.352 550.4 768.8 584.545c9.753 23.028 54.812 14.76 83.215 6.9 13.77-3.757 23.632-7.474 23.632-7.474z" class="cls-4" data-name="Path 1785" transform="translate(-211.253 -3.387)"/>
        <path id="Path_1786" d="M862.893 580.751l-32.131 36.27c-76.778 89.868-221.4 56.535-272 49.393S482.385 581.3 482.385 581.3a19.341 19.341 0 0 0 5.733-.238c8.518-1.474 24.458-8.594 33.745-40.226 13.091-44.647-43.444-141.657-57.131-152.363s-10.739-29.129-9.525-68.379 32.738-24.4 32.738-24.4l51.181 30.906c125.575 17.848 192.242 1.788 192.242 1.788l57.727-27.98c25.6-6.5 29.758-5.949 44.636 29.161s-10.707 65.475-10.707 65.475c-86.3 64.847-75 153.577-61.27 186.3 9.211 22.053 51.9 14.088 78.793 6.61 13.016-3.638 22.346-7.203 22.346-7.203z" class="cls-1" data-name="Path 1786" transform="translate(-210.408 -2.583)"/>
        <path id="Path_1787" d="M892.62 565.213s-14.283-1.192-15.865 8.724l-98.8 8.3-24.567 2.016-26.008-91.3-4.95-17.413 12.3 3.966s4.551 5.418 10.241 11.834c8 9.059 18.26 20.275 21.5 21.89a4.775 4.775 0 0 1 .715.444c5.711 3.923 15.55 21.782 15.55 21.782s9.525 6.751 18.661 5.949c0 0 23.841 7.531 37.289 9.525s53.934 14.283 53.934 14.283z" class="cls-7" data-name="Path 1787" transform="translate(-188.033 12.694)"/>
        <path id="Path_1788" d="M860.707 558.53l-32.13 36.27c-76.778 89.868-221.4 56.535-272 49.393s-76.377-85.11-76.377-85.11a19.341 19.341 0 0 0 5.733-.238 147.377 147.377 0 0 1 19.257 19.289c55.95 66.266 140.877 61.9 140.877 61.9s123 14.673 168.228-54.367a194.992 194.992 0 0 1 24.047-19.972c13.035-3.595 22.365-7.165 22.365-7.165z" class="cls-4" data-name="Path 1788" transform="translate(-208.23 19.638)"/>
        <path id="Path_1789" d="M892.62 565.213s-14.283-1.192-15.865 8.724l-98.8 8.3-24.567 2.016-26.008-91.3-4.95-17.413 12.3 3.966s4.551 5.418 10.241 11.834c8 9.059 18.26 20.275 21.5 21.89a4.775 4.775 0 0 1 .715.444c5.711 3.923 15.55 21.782 15.55 21.782s9.525 6.751 18.661 5.949c0 0 23.841 7.531 37.289 9.525s53.934 14.283 53.934 14.283z" class="cls-4" data-name="Path 1789" transform="translate(-188.033 12.694)"/>
        <path id="Path_1790" d="M882.019 559.6s-14.283-1.192-15.865 8.724l-.964.087a74.433 74.433 0 0 0-.228-1.279l-1.582-10.302 13.438 1.214z" class="cls-4" data-name="Path 1790" transform="translate(-176.258 19.495)"/>
        <path id="Path_1791" d="M836.1 637.378c-23.841 26.29-69.246 56.676-151.236 53.934 0 0-147.6 18.661-201.963-93.629 0 0-21.045-38.578-60.035-17.252l-1.084.585-2.382-16.666s34.916-46.825 90.854 19.441 140.877 61.9 140.877 61.9 123.007 14.673 168.239-54.367c0 0 63.936-64.662 94.041-24.989l1.636 12.039.358 2.644s-31.361-10.327-53.511 16.656z" class="cls-4" data-name="Path 1791" transform="translate(-213.318 18.781)"/>
        <path id="Path_1792" d="M419.42 562.149s34.916-46.814 90.865 19.441a164.12 164.12 0 0 0 21.045 20.817c53.934 44.474 119.81 41.114 119.81 41.114s123 14.684 168.228-54.357c0 0 63.936-64.673 94.041-25l1.983 14.684s-33.7-11.183-55.939 19.809c0 0-32.141 95.222-174.589 90.464 0 0-147.6 18.65-201.963-93.64 0 0-21.424-39.283-61.1-16.667z" class="cls-1" data-name="Path 1792" transform="translate(-213.316 18.597)"/>
        <path id="Path_1793" d="M738.063 383.444l-2.861.228c-3.045-6-3.815-32.51-2.709-57.553l-2.373-.1c-.52 11.779-1.636 46.793 2.785 57.824-28.024 2.081-152.493 10.544-196.9-.065 15.366-32.445 4.28-59.677 4.161-59.959l-2.167.921c.108.271 10.674 26.171-3.8 57.434-7.228-11.313-45.427-68.065-79.433-60.685l.509 2.33c31.426-6.849 68.325 46.478 76.431 58.865l-1.452-.368 3.143 3.034 1.084 1.7.206-.412c5.722 6.155 31.22 36.184 29.833 80.841-.39 12.625 7.954 23.949 24.133 32.77 18.162 9.9 42.881 15.063 65.107 15.063 17.826 0 34.06-3.316 44-10.165 8.008-5.516 11.6-13.112 10.392-21.988-6.578-48.429 30.863-97.021 31.491-97.822 51.257-61.346 93.531-56.947 93.954-56.9l.293-2.362c-1.83-.217-43.79-4.692-95.827 57.369zm-32.337 100.033c1.084 8.041-2.059 14.673-9.374 19.712-21.327 14.684-75.131 12.148-106.622-5.017-10.7-5.841-23.342-15.876-22.887-30.614 1.311-42.393-21.131-71.9-29.021-80.917 47.313 9.991 171 1.4 196.349-.509a3.057 3.057 0 0 0 1.192.943c-8.29 11.779-35.436 54.064-29.638 96.4z" class="cls-4" data-name="Path 1793" transform="translate(-210.34 -.25)"/>
        <path id="Path_1794" d="M582.81 760.36l50.055 14.521-9.981.954z" class="cls-4" data-name="Path 1794" transform="translate(-94.204 63.615)"/>
        <path id="Path_1795" d="M456.158 760.664l36.108-8.724-46.056 7.792z" class="cls-4" data-name="Path 1795" transform="translate(-105.567 62.911)"/>
        <path id="Path_1796" d="M424.84 554.227v5.96l-3.153 9.146c-4.2-11.53-15.7-14.088-21.847-14.6 2.308-2.991 3.945-4.876 3.945-4.876z" class="cls-4" data-name="Path 1796" transform="translate(-214.827 18.912)"/>
        <path id="Path_1797" d="M482.98 530.983L474.257 529s-.4 3.565-7.586 5.548-38.882 11.508-43.249 11.508-24.209 1.192-26.192 9.124c0 0 23.418-1.582 26.983 19.051l67.848-3.175z" class="cls-7" data-name="Path 1797" transform="translate(-215.054 17.167)"/>
        <path id="Path_1798" d="M482.98 530.983L474.257 529s-.4 3.565-7.586 5.548-38.882 11.508-43.249 11.508-24.209 1.192-26.192 9.124c0 0 23.418-1.582 26.983 19.051l67.848-3.175z" class="cls-4" data-name="Path 1798" transform="translate(-215.054 17.167)"/>
        <path id="Path_1799" d="M752.26 728.91s19.929 11.379 27.525 22.389a210.967 210.967 0 0 1 14.088 24.74s14.879 6.5 4.02-17.144-45.633-29.985-45.633-29.985z" class="cls-7" data-name="Path 1799" transform="translate(-185.512 33.893)"/>
        <path id="Path_1800" d="M752.26 728.91s19.929 11.379 27.525 22.389a210.967 210.967 0 0 1 14.088 24.74s14.879 6.5 4.02-17.144-45.633-29.985-45.633-29.985z" class="cls-7" data-name="Path 1800" transform="translate(-185.512 33.893)"/>
        <path id="Path_1801" d="M752.26 728.91s19.929 11.379 27.525 22.389a210.967 210.967 0 0 1 14.088 24.74s14.879 6.5 4.02-17.144-45.633-29.985-45.633-29.985z" class="cls-4" data-name="Path 1801" transform="translate(-185.512 33.893)"/>
        <path id="Path_1802" d="M598.634 315.847c-1.268 1.485-2.167 3.251-3.327 4.812-5.05 6.274-14.564 6-21.8 9.525-9.9 4.822-14.695 16.743-14.413 27.763s4.649 21.457 8.745 31.7 8.041 20.926 7.456 31.925c-.347 6.5-2.276 12.831-4.194 19.062-1.246 4.031-2.753 8.42-6.372 10.587a203.474 203.474 0 0 0 32.835 3.164c31.6.488 63.21-6.339 94.658-3.2a29.367 29.367 0 0 1-9.027-27.72c.878-3.945 2.557-7.651 3.869-11.476a62.332 62.332 0 0 0 .119-39.662c-1.279-3.8-2.926-7.488-4.01-11.346-2.492-8.973-1.831-18.52-3.609-27.655s-7.109-18.693-16.157-20.882c-12.527-3.023-23.451 10.111-35.49 6.5-9.181-2.75-20.256-13.609-29.283-3.097z" class="cls-8" data-name="Path 1802" transform="translate(-201.602 -1.042)"/>
        <g id="Group_432" class="cls-9" data-name="Group 432" transform="translate(357.814 354.911)">
            <path id="Path_1803" d="M677.817 405.986a62.309 62.309 0 0 0 3.251-21.186 62.375 62.375 0 0 1-3.251 18.8c-1.311 3.825-3 7.586-3.869 11.476a27.623 27.623 0 0 0-.6 7.185 27.557 27.557 0 0 1 .6-4.8c.867-3.944 2.558-7.65 3.869-11.475z" data-name="Path 1803" transform="translate(-549.858 -349.808)"/>
            <path id="Path_1804" d="M575.612 414.81c.293-10.631-3.533-20.969-7.5-30.874-4.064-10.165-8.388-20.535-8.724-31.426v2.167c.282 11.01 4.649 21.457 8.734 31.686 3.665 9.137 7.209 18.694 7.49 28.447z" data-name="Path 1804" transform="translate(-559.39 -352.51)"/>
            <path id="Path_1805" d="M689.527 438.176c-30.614-2.547-61.368 3.88-92.112 3.414a205.552 205.552 0 0 1-30.505-2.774 9.577 9.577 0 0 1-2.33 1.983 203.467 203.467 0 0 0 32.835 3.164c31.6.488 63.2-6.35 94.647-3.251a27.264 27.264 0 0 1-2.535-2.536z" data-name="Path 1805" transform="translate(-558.956 -345.393)"/>
        </g>
        <path id="Path_1806" d="M641.577 847.12l26.16 4.822-1.8 3.121s-17.794 1.691-22.378 0-1.982-7.943-1.982-7.943z" class="cls-7" data-name="Path 1806" transform="translate(-194.776 43.783)"/>
        <path id="Path_1807" d="M666.535 648.415s108.475-34.2 104.509-56.026S670.75 565.3 666.535 570.9s0 77.515 0 77.515z" class="cls-7" data-name="Path 1807" transform="translate(-192.815 20.499)"/>
        <path id="Path_1808" d="M666.535 648.415s108.475-34.2 104.509-56.026S670.75 565.3 666.535 570.9s0 77.515 0 77.515z" class="cls-10" data-name="Path 1808" transform="translate(-192.815 20.499)"/>
        <path id="Path_1809" d="M675.7 451.194l-20.59 18.26-26.192 4.757-47.218-5.949L555.12 450s4.692-1.03 17.859-3.966l10.707-2.373c21.435-4.768 12.7-40.1 12.7-40.1s58.724-31.34 51.192 8.333c-4.107 21.619 4.616 31.34 13.416 35.761a35.945 35.945 0 0 0 14.706 3.539z" class="cls-11" data-name="Path 1809" transform="translate(-201.928 5.689)"/>
        <circle id="Ellipse_402" cx="45.644" cy="45.644" r="45.644" class="cls-4" data-name="Ellipse 402" transform="translate(377.689 342.015)"/>
        <circle id="Ellipse_403" cx="45.644" cy="45.644" r="45.644" class="cls-5" data-name="Ellipse 403" transform="translate(377.689 340.823)"/>
        <path id="Path_1810" d="M675.7 447.008l-20.59 18.26-26.192 4.757-47.218-5.949-26.582-18.26s4.692-1.03 17.859-3.966l2.774 1.593h85.241a35.945 35.945 0 0 0 14.705 3.565z" class="cls-4" data-name="Path 1810" transform="translate(-201.928 9.876)"/>
        <path id="Path_1811" d="M621.207 444.692h46.706s15.984-5.96 21.142-2.384 19.842 3.966 21.825 2.384 31.34 14.716 42.057 37.69l-38.091 30.126-165.454 65.9s-7.586-13.1-4.768-17.458-5.158-12.679-5.158-12.679-2.774-14.684 0-19.04l-34.916-43.65s24.209-35.317 29.768-38.882c0 0 1.983-5.852 3.966-5.505s37.365 1.084 37.365 1.084l4.335 2.449z" class="cls-7" data-name="Path 1811" transform="translate(-206.165 9.818)"/>
        <path id="Path_1812" d="M621.207 444.692h46.706s15.984-5.96 21.142-2.384 19.842 3.966 21.825 2.384 31.34 14.716 42.057 37.69l-3.955 3.132-34.135 26.994-165.454 65.9s-7.586-13.1-4.768-17.458-5.158-12.679-5.158-12.679-2.774-14.684 0-19.04l-34.916-43.65s24.209-35.317 29.768-38.882c0 0 1.983-5.852 3.966-5.505s37.365 1.084 37.365 1.084l4.335 2.449z" class="cls-4" data-name="Path 1812" transform="translate(-206.165 9.818)"/>
        <path id="Path_1813" d="M522.286 478.1l-14.686 4.335s-36.5 49.632-39.272 50.824 17.848 42.057 17.848 42.057 7.141-5.559 10.717-9.124 45.622-40.1 45.622-40.1z" class="cls-7" data-name="Path 1813" transform="translate(-209.158 12.908)"/>
        <path id="Path_1814" d="M522.286 478.1l-14.686 4.335s-36.5 49.632-39.272 50.824 17.848 42.057 17.848 42.057 7.141-5.559 10.717-9.124 45.622-40.1 45.622-40.1z" class="cls-4" data-name="Path 1814" transform="translate(-209.158 12.908)"/>
        <path id="Path_1815" d="M777.575 581.018l-24.567 2.016L727 491.735l17.588-1.615c8 9.059 18.26 20.275 21.5 21.89a4.775 4.775 0 0 1 .715.444 71.8 71.8 0 0 1 2.048 13.3c2.384 34.677 5.548 41.472 5.548 41.472s1.366 5.589 3.176 13.792z" class="cls-4" data-name="Path 1815" transform="translate(-187.614 13.914)"/>
        <path id="Path_1816" d="M861.829 801.278c-.672-.1-1.6-.2-2.742-.3l-1.084-.1c-14.445-1.257-54.042-3.175-54.042-3.175a100.4 100.4 0 0 0-2.85-10.36c-.152-.488-.325-1-.5-1.506-3.728-10.837-10.761-25.7-22.053-29.389-18.249-5.949-28.956-12.7-19.43-27.785s4.757-24.2 4.757-24.2-13.188-32.131-17.7-36.1c-2.666-2.352-9.265-15.54-14.315-27.861a137.442 137.442 0 0 1-1.42-3.576c-2.839-7.25-4.92-13.752-5.05-16.981-.368-8.355-15.356-77.818-17.9-89.565-.228-1.084-.358-1.691-.358-1.691a2.354 2.354 0 0 0-.1-.553c-.694-4.248-4.486-32.282 14.781-35.967l24.361-2.243c.813.065 19.712 1.81 22.042 35.761 2.384 34.677 5.548 41.472 5.548 41.472s9.926 40.1 10.717 61.5 24.393 75.391 24.393 75.391S832.1 748.482 834.1 760c.943 5.418 1.972 12.527 4.714 18.292.173.368.358.726.542 1.084 3.088 5.8 8.138 9.97 16.97 9.19a25.686 25.686 0 0 1 4.053 0 15.991 15.991 0 0 1 1.723.206c11.051 1.875 7.367 13.557-.273 12.506z" class="cls-5" data-name="Path 1816" transform="translate(-189.372 13.898)"/>
        <path id="Path_1817" d="M738.434 557.83c-.4 33.377-1.983 62.354-1.983 62.354s-1.994 7.423-4.638 17.339c-3.533-8.669-6.318-16.808-6.5-20.59-.423-9.059-18.3-91.19-18.3-91.19a2.352 2.352 0 0 0-.1-.553l2.471.553s29.397-1.29 29.05 32.087z" class="cls-4" data-name="Path 1817" transform="translate(-189.28 16.848)"/>
        <path id="Path_1818" d="M741.814 558.013c-.4 33.377-1.983 62.354-1.983 62.354s-1.528 5.7-3.674 13.8c-4.7 17.7-12.419 46.858-13.784 52.861-1.983 8.669-28.175 69.821-28.175 69.821s-5.169 18.661-5.169 23.418-3.576 23.841-3.576 23.841v17.052s0 15.941-.932 26.582c-.087.856-.173 1.68-.249 2.449-.4 3.381-.91 5.906-1.593 6.675-2.763 3.186-14.673 22.226-14.673 22.226s-1.539 0-3.9-.054c-5.418-.163-15.258-.813-20.969-3.414a7.943 7.943 0 0 1-4.053-3.251c-2.9-5.8-1.083-19.7-.3-24.718.173-1.17.3-1.864.3-1.864a1.1 1.1 0 0 1 .1-.368c.921-3.869 8.789-37.386 4.671-44.864-4.335-7.932 9.926-24.989 9.926-24.989s7.531-25.8 7.141-35.317c0 0 10.717-46.825 7.932-59.916-.834-3.955-.163-14.272 1.181-26.777 1.745-15.941 4.573-35.436 6.773-49.74 1.788-11.671 3.164-19.9 3.164-19.9s-.661-.206-1.712-.444c-2.753-.629-8.225-1.463-11.389.834-4.335 3.175-2.785-33.724-2.785-33.724L699.356 523l13.459 2.926a21.392 21.392 0 0 1 2.731.1c7.315.648 26.593 4.906 26.268 31.987z" class="cls-5" data-name="Path 1818" transform="translate(-195.074 16.665)"/>
        <path id="Path_1819" d="M867.8 786.579a6.4 6.4 0 0 1-2.232 1.842c-5.223 2.785-33 11.118-45.7 9.525a85.764 85.764 0 0 1-19.842-4.779 33.955 33.955 0 0 1-4.335-1.961h-.065c-2.482-1.658-6.133-16.613-6.925-19.939-.087-.423-.152-.661-.152-.661S772.3 738.1 765.937 748.792l4.335 53.175h-5.949s-.791-52.785-15.475-67.068c0 0-4.248-7.781 4.757-5.548s30.559 16.667 32.943 25a78.708 78.708 0 0 0 6.5 14.64c1.69 3.078 2.991 5.191 2.991 5.191l58.345 5.9 13.08 1.311s2.104 2.672.336 5.186z" class="cls-7" data-name="Path 1819" transform="translate(-185.902 33.896)"/>
        <path id="Path_1820" d="M864.112 782.276a6.4 6.4 0 0 1-2.232 1.842c-5.223 2.785-33 11.118-45.7 9.525a85.761 85.761 0 0 1-19.842-4.779 33.963 33.963 0 0 1-4.335-1.961h-.065c12.755-2.276 40.93-6.87 59.049-6.5 5.561.042 10.188.649 13.125 1.873z" class="cls-4" data-name="Path 1820" transform="translate(-182.219 38.199)"/>
        <path id="Path_1821" d="M850.606 776.636c0 .65 0 1.333.065 2.037-14.445-1.257-54.042-3.175-54.042-3.175a103.353 103.353 0 0 0-3.349-11.92c10.425-4.779 25.358-9.926 38.221-7.521 3.023 6.361 8.138 11.108 17.512 10.273a25.692 25.692 0 0 1 4.053 0 22.475 22.475 0 0 0-2.46 10.306z" class="cls-4" data-name="Path 1821" transform="translate(-182.103 36.113)"/>
        <path id="Path_1822" d="M851.756 777.722v.943l-1.084-.1c-14.445-1.257-54.042-3.175-54.042-3.175a100.408 100.408 0 0 0-2.85-10.36c10.273-4.79 25.271-10.121 38.264-7.943 3.088 5.8 8.138 9.97 16.97 9.189a25.693 25.693 0 0 1 4.053 0 15.975 15.975 0 0 1 1.723.206 22.3 22.3 0 0 0-3.034 11.24z" class="cls-4" data-name="Path 1822" transform="translate(-182.062 36.208)"/>
        <path id="Path_1823" d="M851.253 777.719a26.948 26.948 0 0 0 .379 4.595h-.13l-54.628 8.539a33.985 33.985 0 0 1-4.335-1.961h-.065c-2.482-1.658-6.133-16.613-6.925-19.939a136.55 136.55 0 0 1 4.389-2.276c11.855-5.928 32.976-14.337 48.624-7.5 0 0 12.7 5.776 17.458 4.866-.02-.043-4.72 4.822-4.767 13.676z" class="cls-7" data-name="Path 1823" transform="translate(-182.75 36.211)"/>
        <path id="Path_1824" d="M684.286 825.1c-.4 3.381-.91 5.906-1.593 6.675C679.929 834.957 668.02 854 668.02 854s-1.56 0-3.955-.054c-.314-5.126-2.265-13.578-11.519-13.763-7.315-.141-9.222 5.364-9.45 10.349a7.943 7.943 0 0 1-4.053-3.251c-2.9-5.8-1.084-19.7-.3-24.718 5.209 1.807 25.571 8.114 45.543 2.537z" class="cls-4" data-name="Path 1824" transform="translate(-195.062 41.728)"/>
        <path id="Path_1825" d="M684.535 822.819c-.087.856-.173 1.68-.249 2.449-.4 3.381-.91 5.906-1.593 6.675-2.763 3.186-14.673 22.226-14.673 22.226s-1.539 0-3.9-.054c.076-4.183-.661-15.919-11.573-16.147-8.518-.163-9.753 7.336-9.45 12.733a7.943 7.943 0 0 1-4.053-3.251c-2.9-5.8-1.084-19.7-.3-24.718.173-1.17.3-1.864.3-1.864a1.1 1.1 0 0 1 .1-.368c5.804 1.961 25.831 7.889 45.391 2.319z" class="cls-4" data-name="Path 1825" transform="translate(-195.062 41.555)"/>
        <path id="Path_1826" d="M637.736 821s25.2 10.111 49 2.373l1.43 27.969s-22.865 8.019-23.841 5.418c0 0 1.777-17.339-11.509-17.588s-8.734 18.13-8.734 18.13-10.111-3.121-9.916-5.7 1.456-28.164 3.57-30.602z" class="cls-7" data-name="Path 1826" transform="translate(-195.338 41.597)"/>
        <path id="Path_1827" d="M752.237 491.09c-22.562-6.74-36.346 30.733-38.687 37.668a39.91 39.91 0 0 0-.358 1.084c-.683.152-1.365.314-2.016.5-38.882 10.2-36.541 45.514-34.992 55.8-2.753-.629-8.225-1.463-11.389.834-4.335 3.175-2.785-33.724-2.785-33.724l35.317-27.482 13.459 2.926a2.352 2.352 0 0 0-.1-.553c-.694-4.248-4.486-32.282 14.781-35.967l24.361-2.243z" class="cls-4" data-name="Path 1827" transform="translate(-193.054 13.898)"/>
        <path id="Path_1828" d="M555.059 556.732l-7.932 19.441s-32.933 45.633-2.774 65.865 133.291 14.825 133.291 14.825l7.586-67.187S673.7 541.7 721.672 530.54c0 0 14.185-46.175 39.012-38.752l-47.367-23.938-65.017 24.209-55.159 29.758z" class="cls-7" data-name="Path 1828" transform="translate(-203.91 12.051)"/>
        <path id="Path_1829" d="M555.059 556.732l-7.932 19.441s-32.933 45.633-2.774 65.865 133.291 14.825 133.291 14.825l7.586-67.187S673.7 541.7 721.672 530.54c0 0 14.185-46.175 39.012-38.752l-47.367-23.938-65.017 24.209-55.159 29.758z" class="cls-4" data-name="Path 1829" transform="translate(-203.91 12.051)"/>
        <path id="Path_1830" d="M555.08 585.586s9.926-23.5 22.226-30.213-22.226 30.213-22.226 30.213z" class="cls-4" data-name="Path 1830" transform="translate(-201.911 19.305)"/>
        <path id="Path_1831" d="M594.26 548.352S682.741 490.82 714.883 492z" class="cls-4" data-name="Path 1831" transform="translate(-198.674 14.07)"/>
        <path id="Path_1832" d="M624.06 360.372c16.428 1.625 28.316 17.772 44.6 20.405a7.346 7.346 0 0 0 4.14-.228c4.161-1.831 2.785-8.019.737-12.072q-4.616-9.125-9.244-18.238c-2.276-4.486-4.66-9.1-8.507-12.354A32.145 32.145 0 0 0 644.6 332.3c-15.67-5.082-33.334-6.361-48.212.694-8.366 3.977-30.906 24.361-19.1 34.168 10.567 8.804 34.364-8.026 46.772-6.79z" class="cls-4" data-name="Path 1832" transform="translate(-200.36 .358)"/>
        <path id="Path_1833" d="M624.06 359.271c16.428 1.625 28.316 17.783 44.6 20.405a7.346 7.346 0 0 0 4.14-.228c4.161-1.831 2.785-8.019.737-12.072q-4.616-9.124-9.244-18.238c-2.276-4.486-4.66-9.1-8.507-12.354A32.145 32.145 0 0 0 644.6 331.2c-15.67-5.072-33.334-6.361-48.212.694-8.366 3.977-30.906 24.361-19.1 34.168 10.567 8.803 34.364-8.026 46.772-6.791z" class="cls-8" data-name="Path 1833" transform="translate(-200.36 .267)"/>
        <path id="Path_1834" d="M549.38 545.251A68.432 68.432 0 0 0 579.159 542" class="cls-4" data-name="Path 1834" transform="translate(-202.386 18.255)"/>
        <path id="Path_1835" d="M462.59 538.21s7.586 1.084 7.586 6.285-7.586-6.285-7.586-6.285z" class="cls-4" data-name="Path 1835" transform="translate(-209.603 17.938)"/>
        <path id="Path_1836" d="M466.07 556.869s1.387-2.417 3.771 2.167-3.771-2.167-3.771-2.167z" class="cls-4" data-name="Path 1836" transform="translate(-209.313 19.445)"/>
        <path id="Path_1837" d="M672.8 374.763a7.455 7.455 0 0 1-4.14.238c-16.255-2.633-28.175-18.78-44.6-20.416-12.419-1.235-36.205 15.594-46.793 6.795a8.669 8.669 0 0 1-3.251-5.787 8.788 8.788 0 0 0 3.251 8.171c10.587 8.8 34.374-8.03 46.793-6.795 16.418 1.625 28.316 17.783 44.6 20.405a7.358 7.358 0 0 0 4.14-.228c2.352-1.084 2.926-3.479 2.612-6.134a4.465 4.465 0 0 1-2.612 3.75z" class="cls-4" data-name="Path 1837" transform="translate(-200.36 2.569)"/>
        <path id="Path_1838" d="M650.17 535.614s48.483-12.679 61.617-9.883z" class="cls-4" data-name="Path 1838" transform="translate(-194.008 16.86)"/>
        <path id="Path_1841" d="M331.111 746.07l-4.811 12.625 4.421-12.592" class="cls-12" data-name="Path 1841" transform="translate(-115.536 62.42)"/>
        <path id="Rectangle_977" d="M0 0h6.155v138.601H0z" class="cls-13" data-name="Rectangle 977" transform="translate(127.247 564.86)"/>
        <path id="Path_1845" d="M262.6 674.48l-.39 6.242-.542 8.81-.228 3.674-.542 8.821-.238 3.674-.542 8.81-6.218 100.217a16.97 16.97 0 0 1-16.938 15.919H204.7a16.97 16.97 0 0 1-16.938-15.919l-6.22-100.217L181 705.7l-.228-3.674-.553-8.821-.228-3.674-.542-8.81-.39-6.242a8.788 8.788 0 0 1 8.778-9.33h66a8.788 8.788 0 0 1 8.767 9.33z" class="cls-7" data-name="Path 1845" transform="translate(-90.512 28.558)"/>
        <path id="Path_1846" d="M164.87 654.52l-.542 8.81H82.652l-.542-8.81z" class="cls-14" data-name="Path 1846" transform="translate(6.83 54.76)"/>
        <path id="Path_1847" d="M164.041 666.04l-.542 8.821H83.373l-.553-8.821z" class="cls-14" data-name="Path 1847" transform="translate(6.889 55.724)"/>
        <path id="Path_1848" d="M163.2 677.57l-.542 8.81H84.093l-.553-8.81z" class="cls-14" data-name="Path 1848" transform="translate(6.949 56.689)"/>
        <path id="Path_1849" d="M176.843 596.307c35.858 25.943 50.781 66.5 50.781 66.5s-43.195-1.485-79.053-27.417-50.781-66.5-50.781-66.5 43.21 1.485 79.053 27.417z" class="cls-1" data-name="Path 1849" transform="translate(-97.31 20.504)"/>
        <path id="Path_1850" d="M97.79 568.89s44.842 24.924 59.233 45.514 70.6 48.418 70.6 48.418" class="cls-15" data-name="Path 1850" transform="translate(-97.31 20.504)"/>
        <path id="Path_1851" d="M195.422 547.152c19.506 14.088 27.633 36.194 27.633 36.194s-23.5-.8-43.022-14.922-27.643-36.194-27.643-36.194 23.516.834 43.032 14.922z" class="cls-1" data-name="Path 1851" transform="translate(-92.742 17.437)"/>
        <path id="Path_1852" d="M152.39 532.2s24.4 13.546 32.239 24.762 38.427 26.355 38.427 26.355" class="cls-15" data-name="Path 1852" transform="translate(-92.742 17.435)"/>
        <path id="Path_1853" d="M245.867 580.841c-22.41 24.632-27.157 56.827-27.157 56.827s31.6-7.759 54.021-32.391 27.157-56.827 27.157-56.827-31.6 7.75-54.021 32.391z" class="cls-1" data-name="Path 1853" transform="translate(-87.193 18.794)"/>
        <path id="Path_1854" d="M299.887 548.45s-29.204 25.25-36.617 42.65-44.56 46.6-44.56 46.6" class="cls-15" data-name="Path 1854" transform="translate(-87.193 18.794)"/>
        <path id="Path_1856" d="M964.613 667.11a9.912 9.912 0 0 1 1.279 2.568c10.967 12.885 16.808 24.924 6.264 25.206-9.818.282-21.6 17.837-24.415 22.269a7.827 7.827 0 0 0 .336 1.008s13.806-22.952 25.044-23.277 3.856-13.968-8.508-27.774z" class="cls-4" data-name="Path 1856" transform="translate(-169.307 28.722)"/>
    </g>
</svg>
