<svg xmlns="http://www.w3.org/2000/svg" width="30" height="30" viewBox="0 0 30 30">
    <defs>
        <style>
            .cls-1,.cls-4{fill:#fff}.cls-1{stroke:#707070}.cls-2{clip-path:url(#clip-path)}.cls-3{fill:none}
        </style>
        <clipPath id="clip-path">
            <path id="Rectangle_1000" d="M0 0h30v30H0z" class="cls-1" data-name="Rectangle 1000" transform="translate(.694 -.683)"/>
        </clipPath>
    </defs>
    <g id="Mask_Group_114" class="cls-2" data-name="Mask Group 114" transform="translate(-.694 .683)">
        <g id="settings" transform="translate(.059 .171)">
            <path id="Path_1866" d="M0 0h29.927v29.141H0z" class="cls-3" data-name="Path 1866"/>
            <path id="Path_1867" d="M24.235 15.832a9.217 9.217 0 0 0 .087-1.19 9.218 9.218 0 0 0-.087-1.19l2.631-2a.6.6 0 0 0 .15-.777l-2.494-4.2a.626.626 0 0 0-.549-.3.6.6 0 0 0-.212.036l-3.1 1.214a9.173 9.173 0 0 0-2.107-1.19l-.479-3.225a.6.6 0 0 0-.611-.51h-4.987a.6.6 0 0 0-.611.51l-.474 3.218a9.646 9.646 0 0 0-2.107 1.19L6.179 6.2a.723.723 0 0 0-.224-.036.621.621 0 0 0-.536.3l-2.494 4.2a.588.588 0 0 0 .15.777l2.631 2a9.38 9.38 0 0 0-.087 1.19 9.38 9.38 0 0 0 .087 1.19l-2.631 2a.6.6 0 0 0-.15.777l2.494 4.2a.626.626 0 0 0 .549.3.6.6 0 0 0 .212-.036l3.1-1.214a9.173 9.173 0 0 0 2.107 1.19l.474 3.218a.6.6 0 0 0 .611.51h4.988a.6.6 0 0 0 .611-.51l.474-3.218a9.646 9.646 0 0 0 2.107-1.19l3.1 1.214a.724.724 0 0 0 .224.036.621.621 0 0 0 .536-.3l2.494-4.2a.6.6 0 0 0-.15-.777zm-2.469-2.076a6.319 6.319 0 0 1 .062.886 8.8 8.8 0 0 1-.062.886l-.174 1.372 1.11.85 1.347 1.02-.873 1.469-1.584-.619-1.3-.51-1.122.826a7.353 7.353 0 0 1-1.559.886l-1.322.522-.2 1.372-.249 1.639H14.1l-.237-1.639-.2-1.372-1.322-.522a7.125 7.125 0 0 1-1.534-.862l-1.135-.85-1.322.522-1.584.619-.873-1.469 1.347-1.02 1.11-.85-.175-1.372c-.037-.376-.062-.656-.062-.9s.025-.522.062-.886l.175-1.372-1.11-.85-1.347-1.02.873-1.469 1.584.619 1.3.51 1.122-.826a7.352 7.352 0 0 1 1.559-.886l1.322-.522.2-1.372.247-1.638h1.733l.237 1.639.2 1.372 1.322.522a7.125 7.125 0 0 1 1.534.862l1.135.85 1.322-.522 1.584-.619.873 1.469-1.34 1.033-1.11.85.175 1.372zm-6.8-3.97a4.858 4.858 0 1 0 4.988 4.857 4.922 4.922 0 0 0-4.984-4.858zm0 7.285a2.429 2.429 0 1 1 2.494-2.428 2.469 2.469 0 0 1-2.49 2.427z" class="cls-4" data-name="Path 1867" transform="translate(-.007 -.072)"/>
        </g>
    </g>
</svg>
