<svg xmlns="http://www.w3.org/2000/svg" width="447.36" height="393.642" viewBox="0 0 447.36 393.642">
    <defs>
        <style>
            .cls-1{fill:#f2f2f2}.cls-2{fill:#57b894}.cls-3{fill:none;stroke:#3f3d56;stroke-miterlimit:10}.cls-4{fill:#e30611}.cls-5{opacity:.1}.cls-6{fill:#ff6584}.cls-7{fill:#fbbebe}.cls-8{fill:#2f2e41}
        </style>
    </defs>
    <g id="super_woman" transform="translate(0 -7.795)">
        <ellipse id="Ellipse_445" cx="147.086" cy="22.349" class="cls-1" data-name="Ellipse 445" rx="147.086" ry="22.349" transform="translate(86.683 356.74)"/>
        <path id="Path_2023" d="M791.114 621.107a10.817 10.817 0 1 0 1.44-20.745l.271 5.568-2.634-4.771a10.776 10.776 0 0 0-5.553 6.093 10.607 10.607 0 0 0-.622 2.926 10.815 10.815 0 0 0 7.098 10.929z" class="cls-2" data-name="Path 2023" transform="translate(-464.933 -321.13)"/>
        <path id="Path_2024" d="M820.892 677.089c-.93-4.735 3.1-8.933 7.079-11.661s8.63-5.409 9.988-10.04c1.952-6.655-3.862-12.749-8.386-18a65.12 65.12 0 0 1-8.588-12.763 17.568 17.568 0 0 1-2.054-5.8c-.357-2.95.591-5.885 1.546-8.7q4.771-14.06 10.2-27.884" class="cls-3" data-name="Path 2024" transform="translate(-481.677 -312.539)"/>
        <path id="Path_2025" d="M791.971 618.349a10.817 10.817 0 1 0 1.44-20.745l.271 5.568-2.634-4.771a10.776 10.776 0 0 0-5.553 6.093 10.606 10.606 0 0 0-.622 2.926 10.815 10.815 0 0 0 7.1 10.931z" class="cls-3" data-name="Path 2025" transform="translate(-465.344 -319.805)"/>
        <path id="Path_2026" d="M819.631 571.952a10.8 10.8 0 0 1 7.786-6.859l.891 5.293 1.651-5.559a10.816 10.816 0 1 1-10.327 7.125z" class="cls-2" data-name="Path 2026" transform="translate(-481.738 -304.178)"/>
        <path id="Path_2027" d="M820.774 568.274a10.8 10.8 0 0 1 7.786-6.859l.891 5.293 1.651-5.559a10.816 10.816 0 1 1-10.328 7.125z" class="cls-3" data-name="Path 2027" transform="translate(-482.287 -302.412)"/>
        <path id="Path_2028" d="M829.236 669.159a10.816 10.816 0 0 0 9.573-19.242l-1.269 4.272-.9-5.355-.028-.01a10.816 10.816 0 1 0-7.377 20.336z" class="cls-2" data-name="Path 2028" transform="translate(-483.238 -344.206)"/>
        <path id="Path_2029" d="M830.226 665.434a10.816 10.816 0 0 0 9.573-19.242l-1.269 4.272-.9-5.355-.028-.01a10.816 10.816 0 0 0-7.377 20.336z" class="cls-3" data-name="Path 2029" transform="translate(-483.714 -342.417)"/>
        <path id="Path_2030" d="M814 711.394a10.811 10.811 0 1 0 2.084-8.47l4.819 7.254-6.585-3.85a10.714 10.714 0 0 0-.318 5.066z" class="cls-2" data-name="Path 2030" transform="translate(-479.268 -368.478)"/>
        <path id="Path_2031" d="M814.861 708.636a10.811 10.811 0 1 0 2.084-8.47l4.819 7.254-6.585-3.85a10.716 10.716 0 0 0-.318 5.066z" class="cls-3" data-name="Path 2031" transform="translate(-479.68 -367.153)"/>
        <path id="Path_2032" d="M756.867 132.559a30.4 30.4 0 0 1 30.356-28.809c.924 0 1.836.048 2.739.129a40.387 40.387 0 0 1 69.815-.033c.762-.057 1.529-.1 2.3-.1a30.4 30.4 0 0 1 30.356 28.809" class="cls-1" data-name="Path 2032" transform="translate(-451.907 -73.153)"/>
        <path id="Path_2033" d="M769.048 128.059A30.4 30.4 0 0 1 799.4 99.25c.924 0 1.836.048 2.739.129a40.387 40.387 0 0 1 69.815-.033c.762-.057 1.529-.1 2.3-.1a30.4 30.4 0 0 1 30.356 28.809" class="cls-3" data-name="Path 2033" transform="translate(-457.757 -70.992)"/>
        <path id="Path_2036" d="M207.867 117.559a30.4 30.4 0 0 1 30.356-28.809c.924 0 1.836.048 2.739.129a40.387 40.387 0 0 1 69.815-.033c.762-.057 1.529-.1 2.3-.1a30.4 30.4 0 0 1 30.356 28.809" class="cls-1" data-name="Path 2036" transform="translate(-117.243 91.051)"/>
        <path id="Path_2037" d="M220.048 113.059A30.4 30.4 0 0 1 250.4 84.25c.924 0 1.836.048 2.739.129a40.387 40.387 0 0 1 69.815-.033c.762-.057 1.529-.1 2.3-.1a30.4 30.4 0 0 1 30.356 28.809" class="cls-3" data-name="Path 2037" transform="translate(-130.093 97.212)"/>
        <path id="Path_2038" d="M465.161 261.415s54.635 27.129 64.431 23.361 13.188-37.3 13.188-37.3l-40.317-7.536z" class="cls-4" data-name="Path 2038" transform="translate(-311.812 -148.146)"/>
        <path id="Path_2039" d="M465.161 261.415s54.635 27.129 64.431 23.361 13.188-37.3 13.188-37.3l-40.317-7.536z" class="cls-5" data-name="Path 2039" transform="translate(-311.812 -148.146)"/>
        <path id="Rectangle_1022" d="M0 0h35.795v31.274H0z" class="cls-6" data-name="Rectangle 1022" transform="translate(230.78 72.763)"/>
        <path id="Rectangle_1023" d="M0 0h35.795v31.274H0z" class="cls-5" data-name="Rectangle 1023" transform="translate(230.78 72.763)"/>
        <path id="Path_2040" d="M551.359 459.6s-1.507 32.781 8.666 32.027 0-30.9 0-30.9z" class="cls-7" data-name="Path 2040" transform="translate(-353.172 -253.643)"/>
        <path id="Path_2041" d="M623.9 212.389s2.261 14.318-1.884 16.2-6.782 3.391-6.782 3.391l9.42 6.406 17.332 1.13 4.522-3.391 4.145-3.768s-6.782-1.507-6.782-4.9-.377-13.565-.377-13.565z" class="cls-7" data-name="Path 2041" transform="translate(-383.884 -134.916)"/>
        <path id="Path_2042" d="M623.9 212.389s2.261 14.318-1.884 16.2-6.782 3.391-6.782 3.391l9.42 6.406 17.332 1.13 4.522-3.391 4.145-3.768s-6.782-1.507-6.782-4.9-.377-13.565-.377-13.565z" class="cls-5" data-name="Path 2042" transform="translate(-383.884 -134.916)"/>
        <path id="Path_2043" d="M555.939 470.477s-10.927 35.042-10.927 60.663c0 0-18.086 40.693-17.332 60.663l-4.521 27.506 6.405 2.261 4.9-4.145s1.507-14.695 6.405-21.854 16.2-41.07 16.2-41.07 30.143-63.3 29.013-72.344-30.143-11.68-30.143-11.68z" class="cls-7" data-name="Path 2043" transform="translate(-339.665 -258.866)"/>
        <path id="Path_2044" d="M686.695 455.253s7.159 3.391-3.014 63.678c0 0 5.652 39.94.754 61.794l-.754 21.854h-7.913l-1.507-2.261s-.377-19.593-3.014-24.868-4.9-35.8-4.9-35.8-12.057-62.17-9.42-67.446 29.768-16.951 29.768-16.951z" class="cls-7" data-name="Path 2044" transform="translate(-403.729 -251.554)"/>
        <path id="Path_2045" d="M515.76 744.514s2.638 6.029 7.536 4.521 6.029-1.507 6.029-1.507-3.391 17.332-2.261 25.622-.754 13.565-8.289 13.565-8.666-9.043-8.666-9.043l3.391-21.477z" class="cls-8" data-name="Path 2045" transform="translate(-333.398 -390.476)"/>
        <path id="Path_2046" d="M687.725 726.39s2.638 5.275 6.782 4.145 5.652-3.014 5.652-3.014-.377 11.68 1.13 16.956 4.9 20.347-3.014 21.1a10.173 10.173 0 0 1-10.55-6.029V726.39z" class="cls-8" data-name="Path 2046" transform="translate(-418.701 -381.771)"/>
        <circle id="Ellipse_446" cx="16.579" cy="16.579" r="16.579" class="cls-7" data-name="Ellipse 446" transform="translate(233.606 54.112)"/>
        <path id="Path_2047" d="M647.117 251.557s-13.132-5.157-17.87-4.462a19.365 19.365 0 0 1-14.911 4.462c-9.043-1.13-12.579-5.47-12.579-5.47s-24.346 5.47-22.839 7.731 8.29 39.182 8.29 39.182 4.521 32.027-.754 42.954-7.913 29.013-5.652 30.52 27.506 8.289 30.52 10.173 4.145-4.521 6.029-3.391 6.029 3.014 8.666 1.507 28.259-15.072 27.506-17.709-10.55-34.665-13.941-41.07-.754-19.97 1.13-22.607 5.652-5.652 6.405-13.188 0-28.632 0-28.632z" class="cls-8" data-name="Path 2047" transform="translate(-366.413 -151.1)"/>
        <path id="Path_2048" d="M563.748 258.721a12.953 12.953 0 0 0-4.222 7.193c-1.13 4.9-2.638 44.085-2.638 44.085s-13.941 53.881-10.927 55.012 11.68 3.391 12.811 2.261 13.941-46.722 12.811-51.62 1.507-19.216 1.507-19.216z" class="cls-8" data-name="Path 2048" transform="translate(-350.412 -157.167)"/>
        <path id="Path_2049" d="M693.518 388.343s-20.347-10.173-22.608-3.391 21.477 13.941 21.477 13.941 8.289-3.014 8.289-4.9-7.158-5.65-7.158-5.65z" class="cls-7" data-name="Path 2049" transform="translate(-410.553 -216.672)"/>
        <path id="Path_2050" d="M701.923 257.951l4.145-1.507s2.261-1.507 4.9 4.145 31.274 38.81 26 49.36-22.607 32.027-23.361 30.52-9.42-12.811-7.913-13.941 18.84-16.579 16.579-18.84-11.681-21.477-16.956-22.231-3.394-27.506-3.394-27.506z" class="cls-8" data-name="Path 2050" transform="translate(-425.362 -155.986)"/>
        <path id="Path_2051" d="M402.019 154.791s-57.456-23.1-107.193-45.333c0 0-26-6.405-39.563 5.652 0 0 11.3-1.507 11.3 4.9 0 0 9.8 12.811-20.724 15.072-21.255 1.574-29.718 14.3-32.9 21.876a30.792 30.792 0 0 1-12.445 14.642c-7.346 4.391-17.993 7.621-30.386 1.916 0 0 .7 1.083 2.041 2.888 23.928 32.313 113.033 60.436 144.5 35.4 19.446-15.47 50.273-35.022 72.372-25.174 34.665 15.448 41.07 8.666 41.07 8.666l1.507-4.145s-33.534-9.043-34.288-20.724 4.709-15.636 4.709-15.636z" class="cls-4" data-name="Path 2051" transform="translate(-170.109 -84.665)"/>
        <path id="Path_2052" d="M677.879 204.052s8.1 3.2 9.608 13.753c0 0 8.666 16.956-1.13 21.1s-11.68 3.014-11.68 3.014v-1.884s10.55-6.405 8.289-11.3-5.087-24.683-5.087-24.683z" class="cls-4" data-name="Path 2052" transform="translate(-412.434 -130.912)"/>
        <path id="Path_2053" d="M652.927 287.46s2.638-6.782 1.884-6.782 3.066-4.171 4.547-2.651 4.119 6.042 1.1 7.172-7.531 2.261-7.531 2.261z" class="cls-4" data-name="Path 2053" transform="translate(-401.989 -166.279)"/>
        <path id="Path_2054" d="M679.419 280.671s-6.888-2.349-6.856-1.6-4.3-2.887-2.841-4.431 5.862-4.371 7.119-1.407 2.578 7.438 2.578 7.438z" class="cls-4" data-name="Path 2054" transform="translate(-409.911 -163.515)"/>
        <path id="Path_2055" d="M664.641 268.377s3.44-1.931 5.488 1.107-2.474 8.313-5.488 8.313-3.014-6.405-3.014-6.405z" class="cls-4" data-name="Path 2055" transform="translate(-406.167 -161.514)"/>
        <path id="Path_2056" d="M664.641 268.377s3.44-1.931 5.488 1.107-2.474 8.313-5.488 8.313-3.014-6.405-3.014-6.405z" class="cls-5" data-name="Path 2056" transform="translate(-406.167 -161.514)"/>
        <path id="Path_2057" d="M610.765 142.7a20.346 20.346 0 0 0-5.106 5.732 25.718 25.718 0 0 0-1.619 3.942c-1.524 4.385-5.311 8.826-3.708 13.183.457 1.243 1.171 2.554.761 3.814-.364 1.119-1.488 1.771-2.3 2.622-1.745 1.825-2.038 4.563-2.145 7.086-.2 4.62 2.345 10.064 5.415 13.523a18.893 18.893 0 0 1 1.847 2.091 4.9 4.9 0 0 1 .579 4.033l4.471-.933a37.092 37.092 0 0 1 .151 4.968 4.638 4.638 0 0 0 4.918-3.178 13.278 13.278 0 0 0 1.229 3.394 17.519 17.519 0 0 0 2.97-5.5 15.725 15.725 0 0 0 .533-7.941 33.664 33.664 0 0 0-1.925-5.644c-1.58-3.993-2.87-8.094-4.159-12.19a16.977 16.977 0 0 1-1.144-6.545l1.589-.173a7.588 7.588 0 0 1 .5-2.564 9.408 9.408 0 0 1 2.657 1l1.832-4.648a10.553 10.553 0 0 0 4.6 2.344l6.314 1.988.038-1.25a32.407 32.407 0 0 0 8.985 5.636 2.044 2.044 0 0 1-.444-1.626c1.556 2.787.934 6.26-.026 9.3s-2.234 6.144-1.848 9.313c.289 2.37 1.5 4.637 1.278 7.013-.111 1.171-.569 2.284-.711 3.451-.339 2.783 1.124 5.434 2.537 7.856l2.747-3.773a14.446 14.446 0 0 1 3.465-3.735c1.461-.969 3.273-1.4 4.546-2.609 2.273-2.151 1.985-5.816 1.245-8.857a15.394 15.394 0 0 1-.724-4.914c.245-2.81 2.2-5.135 3.3-7.732a13.422 13.422 0 0 0-.752-11.8c-1.365-2.34-3.426-4.225-4.712-6.61s-1.768-5.2-3.522-7.247a12.227 12.227 0 0 0-2.952-2.352 38.491 38.491 0 0 0-16.375-5.342c-5.492-.574-10.126 1.4-14.335 4.874z" class="cls-6" data-name="Path 2057" transform="translate(-374.954 -99.058)"/>
    </g>
</svg>
